<svg xmlns="http://www.w3.org/2000/svg" width="57.472" height="64.983" viewBox="0 0 57.472 64.983">
  <g id="Layer_2" data-name="Layer 2" transform="translate(0.002 0.003)">
    <g id="Layer_1" data-name="Layer 1" transform="translate(-0.002 -0.003)">
      <path id="Path_1" data-name="Path 1" d="M83.175,56.437A7.158,7.158,0,0,1,79.6,62.78L61.961,72.959,55,68.847,74.957,57.321a3.031,3.031,0,0,0,1.507-2.663l-.41-21.331V23.09h0L79.213,25A7.153,7.153,0,0,1,82.7,30.973Z" transform="translate(-25.705 -10.79)" fill="#0cc"/>
      <path id="Path_2" data-name="Path 2" d="M50.358,12.275h0V22.368L50.31,19.86,29.767,7.5A3.015,3.015,0,0,0,26.7,7.455l-15.036,8.7-.064.037L.063,22.523,0,19.327a7.174,7.174,0,0,1,3.584-6.333L24.43.957a7.158,7.158,0,0,1,7.281.069Z" transform="translate(0.002 0.003)" fill="#339"/>
      <path id="Path_3" data-name="Path 3" d="M36.311,76.375l-3.2,1.854a7.158,7.158,0,0,1-7.281-.069L4.008,65a7.169,7.169,0,0,1-3.462-6L.12,36.733,11.656,30.4,6.735,33.239,7.2,57.35a3.025,3.025,0,0,0,1.459,2.53L29.286,72.322l.064-.059Z" transform="translate(-0.055 -14.207)" fill="#06f"/>
      <line id="Line_1" data-name="Line 1" x1="4.916" y1="2.903" transform="translate(24.373 55.154)" fill="#00477f"/>
      <path id="Path_4" data-name="Path 4" d="M39.143,56.793c-.037-1.683-.069-3.361-.107-5.039H49.1v7.425a7.851,7.851,0,0,1-4.527,5.646l-11.291.213a7.233,7.233,0,0,1-3.2-2.775,7.057,7.057,0,0,1-1.039-3.084V47.227a7.041,7.041,0,0,1,4.421-4.937h10.9a7.105,7.105,0,0,1,2.876,1.976A7.414,7.414,0,0,1,49,49.406h-3.8a3.728,3.728,0,0,0-.618-1.539,3.664,3.664,0,0,0-.927-.937H33.982a3.281,3.281,0,0,0-1.129,1.854v9.331a4.08,4.08,0,0,0,.533.921,3.984,3.984,0,0,0,.82.826h9.587a2.466,2.466,0,0,0,1.028-.826,2.4,2.4,0,0,0,.41-1.028v-1.22Z" transform="translate(-13.577 -19.764)" fill="#0cc"/>
      <rect id="Rectangle_1" data-name="Rectangle 1" width="3.803" height="22.727" transform="translate(38.195 22.526)" fill="#0cc"/>
    </g>
  </g>
</svg>
